<?xml version="1.0" standalone="no"?>
<!DOCTYPE svg PUBLIC "-//W3C//DTD SVG 20010904//EN"
 "http://www.w3.org/TR/2001/REC-SVG-20010904/DTD/svg10.dtd">
<svg version="1.0" xmlns="http://www.w3.org/2000/svg"
 width="512.000000pt" height="512.000000pt" viewBox="0 0 512.000000 512.000000"
 preserveAspectRatio="xMidYMid meet">

<g transform="translate(0.000000,512.000000) scale(0.100000,-0.100000)"
fill="#000000" stroke="none">
<path d="M1293 4595 c-106 -33 -204 -122 -245 -223 l-23 -57 -3 -877 -2 -877
682 -3 c628 -4 687 -5 738 -22 186 -62 322 -207 359 -384 7 -36 11 -306 11
-848 l0 -795 503 3 502 3 67 33 c82 40 157 119 190 200 l23 57 3 1137 2 1137
-627 3 -628 3 -55 26 c-121 57 -201 167 -220 300 -5 35 -10 319 -10 632 l0
567 -612 -1 c-478 0 -622 -3 -655 -14z"/>
<path d="M2810 3990 c0 -542 1 -566 20 -597 42 -70 26 -68 515 -71 242 -1 497
-1 568 0 l127 3 -615 615 -615 615 0 -565z"/>
<path d="M540 2294 c-140 -38 -239 -138 -275 -281 -14 -53 -15 -151 -13 -760
3 -641 4 -702 21 -743 28 -72 84 -146 140 -184 91 -62 122 -69 327 -73 167 -4
188 -2 219 15 67 37 90 121 48 183 -40 60 -72 69 -245 69 -170 0 -200 8 -227
60 -23 44 -23 1356 0 1400 25 49 46 55 230 60 189 6 208 11 245 73 38 61 14
144 -51 179 -29 15 -57 18 -199 17 -112 0 -183 -5 -220 -15z"/>
<path d="M1863 2296 c-89 -40 -98 -177 -16 -232 24 -16 53 -20 204 -24 193 -5
202 -8 235 -72 21 -40 21 -1336 0 -1376 -33 -64 -42 -67 -235 -72 -151 -4
-180 -8 -204 -24 -84 -57 -72 -194 20 -233 52 -21 377 -14 443 10 99 37 191
131 229 232 21 55 21 71 21 775 0 704 0 720 -21 775 -38 101 -130 195 -229
232 -64 23 -400 30 -447 9z"/>
<path d="M1339 2033 c-80 -49 -79 -179 1 -227 59 -34 144 -12 180 47 54 88
-11 197 -117 197 -21 0 -50 -8 -64 -17z"/>
<path d="M1355 1530 c-33 -13 -66 -56 -75 -97 -5 -21 -6 -218 -3 -438 5 -330
8 -405 21 -426 46 -80 173 -78 222 4 19 30 20 53 20 452 0 399 -1 422 -20 452
-32 54 -106 78 -165 53z"/>
</g>
</svg>
