<?xml version="1.0" standalone="no"?>
<!DOCTYPE svg PUBLIC "-//W3C//DTD SVG 20010904//EN"
 "http://www.w3.org/TR/2001/REC-SVG-20010904/DTD/svg10.dtd">
<svg version="1.0" xmlns="http://www.w3.org/2000/svg"
 width="512.000000pt" height="512.000000pt" viewBox="0 0 512.000000 512.000000"
 preserveAspectRatio="xMidYMid meet">

<g transform="translate(0.000000,512.000000) scale(0.100000,-0.100000)"
fill="#000000" stroke="none">
<path d="M1293 4595 c-106 -33 -204 -122 -245 -223 l-23 -57 -3 -651 -3 -651
78 18 c238 57 509 44 750 -36 470 -157 816 -538 930 -1028 24 -98 27 -134 27
-292 1 -194 -11 -281 -61 -439 -77 -248 -249 -496 -460 -666 l-75 -60 804 2
803 3 67 33 c82 40 157 119 190 200 l23 57 3 1137 2 1137 -627 3 -628 3 -55
26 c-121 57 -201 167 -220 300 -5 35 -10 319 -10 632 l0 567 -612 -1 c-478 0
-622 -3 -655 -14z"/>
<path d="M2810 3990 c0 -542 1 -566 20 -597 42 -70 26 -68 515 -71 242 -1 497
-1 568 0 l127 3 -615 615 -615 615 0 -565z"/>
<path d="M863 2673 c-44 -27 -90 -55 -102 -64 l-22 -17 27 -98 c65 -230 21
-413 -135 -556 -69 -64 -126 -94 -246 -128 l-90 -26 -3 -102 c-1 -56 1 -116 6
-134 7 -30 13 -33 81 -50 192 -47 337 -188 386 -373 22 -86 19 -176 -10 -280
-14 -50 -25 -93 -25 -97 0 -9 75 -61 152 -104 l61 -34 84 80 c139 134 281 186
445 162 117 -17 194 -58 300 -160 l89 -85 37 17 c20 10 69 38 108 64 l71 46
-29 110 c-26 95 -30 123 -26 201 13 254 178 426 469 489 24 5 27 11 32 63 3
32 3 93 0 135 -6 74 -7 79 -32 84 -200 44 -333 141 -406 297 -60 125 -64 245
-16 402 12 38 18 71 14 74 -29 22 -154 101 -180 115 l-32 16 -78 -78 c-182
-180 -394 -220 -611 -114 -33 16 -92 61 -143 110 -48 45 -88 82 -91 82 -2 0
-40 -21 -85 -47z m678 -797 c142 -94 156 -285 30 -399 -151 -136 -396 -36
-409 168 -2 35 1 80 8 101 14 43 80 118 123 140 72 38 183 33 248 -10z"/>
</g>
</svg>
