<?xml version="1.0" standalone="no"?>
<!DOCTYPE svg PUBLIC "-//W3C//DTD SVG 20010904//EN"
 "http://www.w3.org/TR/2001/REC-SVG-20010904/DTD/svg10.dtd">
<svg version="1.0" xmlns="http://www.w3.org/2000/svg"
 width="512.000000pt" height="512.000000pt" viewBox="0 0 512.000000 512.000000"
 preserveAspectRatio="xMidYMid meet">

<g transform="translate(0.000000,512.000000) scale(0.100000,-0.100000)"
fill="#000000" stroke="none">
<path d="M1215 4353 c-202 -27 -371 -171 -432 -368 -17 -57 -18 -129 -18
-1425 0 -1296 1 -1368 18 -1425 63 -205 227 -340 450 -370 l47 -6 0 698 c0
402 5 727 10 766 25 172 155 302 326 327 40 5 328 10 680 10 l612 0 92 55
c385 227 882 258 1269 79 41 -19 78 -34 83 -34 6 0 8 169 6 428 -4 408 -5 430
-26 493 -36 109 -87 171 -354 436 -235 234 -260 255 -329 287 -77 35 -178 56
-273 56 l-55 0 -3 -502 -3 -503 -29 -60 c-38 -76 -105 -143 -181 -181 l-60
-29 -610 0 -610 0 -67 33 c-82 40 -157 119 -190 200 -23 57 -23 61 -26 550
l-3 492 -147 -1 c-81 -1 -160 -4 -177 -6z"/>
<path d="M1790 3890 c0 -513 -1 -507 57 -546 27 -18 54 -19 583 -19 514 0 558
1 583 18 64 42 62 24 65 544 l3 473 -646 0 -645 0 0 -470z"/>
<path d="M3475 2540 c-430 -93 -768 -414 -883 -837 -24 -90 -26 -114 -26 -293
-1 -183 1 -201 27 -294 60 -215 152 -375 306 -526 135 -134 271 -220 435 -275
167 -56 338 -75 505 -56 739 86 1203 820 966 1527 -98 291 -342 558 -624 680
-155 67 -247 86 -441 90 -146 3 -190 1 -265 -16z m288 -511 c12 -6 145 -133
295 -283 288 -286 303 -307 283 -369 -17 -49 -565 -593 -607 -602 -90 -18
-174 88 -133 168 6 12 81 93 167 179 l156 157 -380 3 c-412 3 -409 3 -444 61
-37 60 -19 136 40 171 25 14 74 16 406 16 l379 0 -151 153 c-172 173 -184 188
-184 235 0 88 97 150 173 111z"/>
<path d="M1620 2302 c-32 -14 -60 -39 -75 -68 -13 -25 -15 -123 -15 -751 l0
-723 465 0 c256 0 465 4 465 9 0 4 -15 41 -34 82 -107 231 -144 571 -91 824
41 198 133 409 240 553 30 40 55 75 55 77 0 8 -994 4 -1010 -3z"/>
</g>
</svg>
