<?xml version="1.0" standalone="no"?>
<!DOCTYPE svg PUBLIC "-//W3C//DTD SVG 20010904//EN"
 "http://www.w3.org/TR/2001/REC-SVG-20010904/DTD/svg10.dtd">
<svg version="1.0" xmlns="http://www.w3.org/2000/svg"
 width="512.000000pt" height="512.000000pt" viewBox="0 0 512.000000 512.000000"
 preserveAspectRatio="xMidYMid meet">

<g transform="translate(0.000000,512.000000) scale(0.100000,-0.100000)"
fill="#000000" stroke="none">
<path d="M1293 4596 c-106 -34 -204 -124 -245 -224 l-23 -57 0 -1755 0 -1755
23 -57 c33 -81 108 -160 190 -200 l67 -33 1255 0 1255 0 67 33 c82 40 157 119
190 200 l23 57 0 1755 0 1755 -23 57 c-33 81 -108 160 -190 200 l-67 33 -1240
2 c-1006 1 -1248 -1 -1282 -11z m622 -260 c42 -18 75 -69 75 -116 0 -19 -7
-75 -15 -125 -25 -150 -41 -135 145 -135 157 0 160 0 165 23 2 12 13 82 24
154 11 73 26 142 34 154 56 79 166 71 210 -15 19 -36 19 -41 3 -149 -9 -62
-19 -124 -22 -139 l-6 -28 97 0 c110 0 145 -13 170 -66 19 -41 19 -79 -1 -113
-28 -48 -51 -56 -179 -61 l-120 -5 -27 -180 c-15 -99 -27 -188 -27 -197 -1
-16 9 -18 74 -18 87 0 127 -16 150 -60 31 -60 10 -137 -45 -165 -20 -10 -59
-15 -123 -15 l-94 0 -16 -97 c-14 -90 -18 -100 -51 -130 -29 -27 -44 -33 -80
-33 -84 0 -131 68 -115 166 4 27 8 59 8 72 l1 22 -162 -2 -162 -3 -13 -83 c-7
-45 -20 -96 -28 -112 -41 -80 -169 -79 -211 2 -13 25 -15 47 -10 100 3 38 7
74 9 81 1 9 -30 13 -111 17 -113 5 -114 5 -143 38 -23 26 -29 41 -29 80 0 96
43 122 204 122 112 0 116 1 121 23 4 19 55 361 55 373 0 2 -40 4 -89 4 -81 0
-92 2 -120 25 -60 51 -62 132 -5 186 23 22 36 24 138 27 l113 4 22 151 c24
165 34 190 92 219 41 22 50 22 94 4z"/>
<path d="M1915 3688 c-3 -18 -14 -96 -25 -173 -11 -77 -23 -152 -26 -167 l-6
-28 166 0 c91 0 166 2 166 4 0 2 11 81 25 176 14 95 25 183 25 196 l0 24 -160
0 -159 0 -6 -32z"/>
</g>
</svg>
