<?xml version="1.0" standalone="no"?>
<!DOCTYPE svg PUBLIC "-//W3C//DTD SVG 20010904//EN"
 "http://www.w3.org/TR/2001/REC-SVG-20010904/DTD/svg10.dtd">
<svg version="1.0" xmlns="http://www.w3.org/2000/svg"
 width="512.000000pt" height="512.000000pt" viewBox="0 0 512.000000 512.000000"
 preserveAspectRatio="xMidYMid meet">

<g transform="translate(0.000000,512.000000) scale(0.100000,-0.100000)"
fill="#000000" stroke="none">
<path d="M778 4081 c-31 -10 -72 -28 -91 -40 -52 -32 -116 -106 -145 -169
l-27 -57 0 -1255 0 -1255 33 -67 c40 -81 121 -158 202 -191 l55 -22 1755 0
1755 0 57 23 c81 33 160 108 200 190 l33 67 0 1255 0 1255 -33 67 c-40 82
-119 157 -200 190 l-57 23 -1740 2 c-1657 2 -1743 1 -1797 -16z m1048 -796
c75 -37 142 -104 180 -180 26 -54 29 -70 29 -160 0 -87 -3 -107 -26 -155 -113
-237 -412 -296 -603 -119 -173 159 -151 449 44 584 70 49 134 66 231 62 70 -2
96 -8 145 -32z m1928 -229 c97 -40 103 -177 10 -221 -46 -22 -817 -22 -869 -1
-92 39 -96 170 -5 218 32 17 66 18 433 18 315 0 404 -3 431 -14z m-1586 -722
c99 -49 143 -144 125 -270 -30 -209 -179 -358 -406 -405 -190 -40 -461 -18
-596 47 -74 36 -180 142 -214 215 -86 183 -51 351 87 415 l51 24 451 0 450 0
52 -26z m1596 -49 c64 -31 88 -125 44 -180 -42 -54 -53 -55 -485 -55 -367 0
-401 1 -433 18 -89 47 -87 178 3 217 49 22 826 21 871 0z"/>
</g>
</svg>
